<svg xmlns="http://www.w3.org/2000/svg" viewBox="0 0 77.44 122.77"><defs><style>.cls-1{fill:#f9b047;}.cls-2,.cls-3{fill:#fff;}.cls-3{opacity:0.2;}</style></defs><g id="Layer_2" data-name="Layer 2"><g id="OBJECTS"><path class="cls-1" d="M73.38,101.18a38.34,38.34,0,0,0,4-17h0s1.29-11.94-6-26.4A69.48,69.48,0,0,0,53.54,67l-.17.12C34,80,19.32,83.45,9.08,83.45a38.76,38.76,0,0,1-9.08-1c0,1.1.08,1.71.08,1.71A38.25,38.25,0,0,0,1,92.35C13.38,87.72,43.14,80.45,73.38,101.18Z"/><path class="cls-1" d="M40.23,31.13a85.29,85.29,0,0,1-8.58,8.4c-5.35,4.32-12.53,8.11-19.95,9.08a65.56,65.56,0,0,0-3.95,6c9.8.62,23.94-5.56,29.46-8.58A96.46,96.46,0,0,1,57,37.36a139.39,139.39,0,0,1-8.81-14A77.27,77.27,0,0,0,40.23,31.13Z"/><path class="cls-2" d="M9.34,61a26.72,26.72,0,0,1-4.61-.39A56.61,56.61,0,0,0,.39,76c7.78,2.16,24,2.81,49.44-14A74,74,0,0,1,68.21,52.2a65.18,65.18,0,0,0-4.92-6.69s-.86-1-2.28-2.77a87.36,87.36,0,0,0-20.75,8.75C37.87,52.8,22.44,61,9.34,61Z"/><path class="cls-2" d="M48.28,111.1l.18.12a81.13,81.13,0,0,0,10.21,6,39,39,0,0,0,11.49-10.66C41.63,86.83,13.73,94.13,2.79,98.33a39.43,39.43,0,0,0,1.79,3.91C16.68,100,32,100.9,48.28,111.1Z"/><path class="cls-1" d="M44.86,116.36c-13.5-8.42-26.17-9.78-36.54-8.39a38.62,38.62,0,0,0,43.22,12.61C47.89,118.49,45.46,116.79,44.86,116.36Z"/><path class="cls-2" d="M27.71,34.65a78.33,78.33,0,0,0,7.93-7.78,80.27,80.27,0,0,1,9-8.74l.59-.46A93,93,0,0,1,38.71,0C34.44,17.17,24.07,32.64,18.26,40.35A40.07,40.07,0,0,0,27.71,34.65Z"/><path class="cls-3" d="M72,74.84C70.75,69,68,64.61,65.87,65.07s-2.78,5.6-1.49,11.46,4.05,10.23,6.17,9.76S73.33,80.7,72,74.84Z"/></g></g></svg>